<svg width="450" height="450" viewBox="0 0 450 450" fill="none" xmlns="http://www.w3.org/2000/svg">
<path d="M50.9972 250.144L50.1601 40.1594C50.0718 18.0059 68.0061 0 90.1598 0H260.285C282.376 0 300.285 17.9294 300.285 40.0208V210.123C300.285 232.215 282.376 250.144 260.285 250.144H50.9972Z" fill="#1F232F"/>
<path d="M360 345H155.692L154.875 139.995C154.798 120.611 170.49 104.856 189.875 104.856H360C379.327 104.856 395 120.543 395 139.877V309.979C395 329.313 379.327 345 360 345Z" fill="#779760" stroke="#1F232F" stroke-width="10"/>
<rect x="100.855" y="73.6311" width="24.9288" height="100.865" fill="#779760"/>
<rect x="200.57" y="174.496" width="99.7151" height="25.2161" fill="#1F232F"/>
<rect y="375" width="450" height="75" rx="25" fill="#1F232F"/>
<path d="M113.791 388.575V429H107.416L106.291 423.675H105.916C104.616 425.775 102.816 427.325 100.516 428.325C98.2161 429.275 95.7911 429.75 93.2411 429.75C88.4911 429.75 84.8661 428.575 82.3661 426.225C79.8661 423.875 78.6161 420.15 78.6161 415.05V388.575H86.6411V413.85C86.6411 420.1 89.3661 423.225 94.8161 423.225C98.9661 423.225 101.841 422 103.441 419.55C105.041 417.1 105.841 413.6 105.841 409.05V388.575H113.791ZM146.407 387.825C151.257 387.825 155.157 389.575 158.107 393.075C161.107 396.575 162.607 401.8 162.607 408.75C162.607 415.6 161.107 420.825 158.107 424.425C155.107 427.975 151.182 429.75 146.332 429.75C143.232 429.75 140.707 429.2 138.757 428.1C136.857 426.95 135.332 425.6 134.182 424.05H133.657C133.807 424.95 133.932 426.025 134.032 427.275C134.132 428.475 134.182 429.55 134.182 430.5V447H126.232V388.575H132.682L133.807 393.975H134.182C135.332 392.275 136.857 390.825 138.757 389.625C140.707 388.425 143.257 387.825 146.407 387.825ZM144.532 394.35C140.782 394.35 138.132 395.45 136.582 397.65C135.032 399.8 134.232 403.075 134.182 407.475V408.675C134.182 413.325 134.932 416.925 136.432 419.475C137.932 421.975 140.682 423.225 144.682 423.225C147.982 423.225 150.432 421.875 152.032 419.175C153.632 416.475 154.432 412.95 154.432 408.6C154.432 404.2 153.632 400.725 152.032 398.175C150.432 395.625 147.932 394.35 144.532 394.35ZM199.591 417.6C199.591 421.55 198.141 424.575 195.241 426.675C192.341 428.725 188.316 429.75 183.166 429.75C180.316 429.75 177.866 429.525 175.816 429.075C173.816 428.675 171.966 428.075 170.266 427.275V420.3C172.016 421.15 174.066 421.925 176.416 422.625C178.816 423.275 181.141 423.6 183.391 423.6C186.391 423.6 188.541 423.125 189.841 422.175C191.191 421.225 191.866 419.95 191.866 418.35C191.866 417.45 191.616 416.65 191.116 415.95C190.616 415.2 189.666 414.45 188.266 413.7C186.916 412.9 184.916 412 182.266 411C179.666 409.95 177.466 408.925 175.666 407.925C173.916 406.875 172.566 405.65 171.616 404.25C170.666 402.8 170.191 400.95 170.191 398.7C170.191 395.2 171.591 392.525 174.391 390.675C177.241 388.775 180.991 387.825 185.641 387.825C188.091 387.825 190.391 388.075 192.541 388.575C194.741 389.075 196.866 389.775 198.916 390.675L196.291 396.75C194.541 396 192.741 395.375 190.891 394.875C189.041 394.325 187.166 394.05 185.266 394.05C182.866 394.05 181.041 394.425 179.791 395.175C178.541 395.925 177.916 396.975 177.916 398.325C177.916 399.275 178.216 400.1 178.816 400.8C179.416 401.5 180.416 402.2 181.816 402.9C183.266 403.6 185.241 404.45 187.741 405.45C190.241 406.4 192.366 407.375 194.116 408.375C195.916 409.375 197.266 410.6 198.166 412.05C199.116 413.5 199.591 415.35 199.591 417.6ZM229.244 387.825C234.094 387.825 237.994 389.575 240.944 393.075C243.944 396.575 245.444 401.8 245.444 408.75C245.444 415.6 243.944 420.825 240.944 424.425C237.944 427.975 234.019 429.75 229.169 429.75C226.069 429.75 223.544 429.2 221.594 428.1C219.694 426.95 218.169 425.6 217.019 424.05H216.494C216.644 424.95 216.769 426.025 216.869 427.275C216.969 428.475 217.019 429.55 217.019 430.5V447H209.069V388.575H215.519L216.644 393.975H217.019C218.169 392.275 219.694 390.825 221.594 389.625C223.544 388.425 226.094 387.825 229.244 387.825ZM227.369 394.35C223.619 394.35 220.969 395.45 219.419 397.65C217.869 399.8 217.069 403.075 217.019 407.475V408.675C217.019 413.325 217.769 416.925 219.269 419.475C220.769 421.975 223.519 423.225 227.519 423.225C230.819 423.225 233.269 421.875 234.869 419.175C236.469 416.475 237.269 412.95 237.269 408.6C237.269 404.2 236.469 400.725 234.869 398.175C233.269 395.625 230.769 394.35 227.369 394.35ZM271.478 387.825C276.778 387.825 280.953 389.475 284.003 392.775C287.053 396.025 288.578 400.475 288.578 406.125V410.475H261.428C261.528 414.625 262.603 417.8 264.653 420C266.753 422.2 269.678 423.3 273.428 423.3C276.028 423.3 278.328 423.075 280.328 422.625C282.378 422.125 284.478 421.4 286.628 420.45V427.05C284.578 427.95 282.528 428.625 280.478 429.075C278.428 429.525 275.978 429.75 273.128 429.75C269.178 429.75 265.703 428.975 262.703 427.425C259.753 425.875 257.428 423.575 255.728 420.525C254.078 417.425 253.253 413.625 253.253 409.125C253.253 404.575 254.003 400.725 255.503 397.575C257.053 394.425 259.178 392.025 261.878 390.375C264.628 388.675 267.828 387.825 271.478 387.825ZM271.478 393.975C268.628 393.975 266.328 394.9 264.578 396.75C262.878 398.6 261.878 401.225 261.578 404.625H280.628C280.578 401.475 279.803 398.925 278.303 396.975C276.853 394.975 274.578 393.975 271.478 393.975ZM314.173 387.825C319.223 387.825 322.998 388.95 325.498 391.2C328.048 393.4 329.323 396.875 329.323 401.625V429H323.698L322.123 423.375H321.823C320.073 425.575 318.223 427.2 316.273 428.25C314.373 429.25 311.723 429.75 308.323 429.75C304.673 429.75 301.648 428.775 299.248 426.825C296.848 424.825 295.648 421.725 295.648 417.525C295.648 413.425 297.198 410.3 300.298 408.15C303.398 406 308.173 404.825 314.623 404.625L321.523 404.4V402.15C321.523 399.2 320.848 397.125 319.498 395.925C318.148 394.675 316.248 394.05 313.798 394.05C311.748 394.05 309.773 394.35 307.873 394.95C305.973 395.55 304.148 396.275 302.398 397.125L299.848 391.35C301.748 390.35 303.923 389.525 306.373 388.875C308.873 388.175 311.473 387.825 314.173 387.825ZM321.448 409.575L316.048 409.725C311.448 409.925 308.248 410.7 306.448 412.05C304.698 413.35 303.823 415.2 303.823 417.6C303.823 419.7 304.448 421.225 305.698 422.175C306.948 423.125 308.573 423.6 310.573 423.6C313.673 423.6 316.248 422.725 318.298 420.975C320.398 419.225 321.448 416.6 321.448 413.1V409.575ZM349.439 372V400.5C349.439 401.5 349.389 402.7 349.289 404.1C349.189 405.5 349.114 406.75 349.064 407.85H349.289C349.839 407.1 350.589 406.125 351.539 404.925C352.539 403.675 353.414 402.65 354.164 401.85L366.539 388.575H375.764L359.489 405.9L376.814 429H367.439L354.089 410.925L349.439 414.825V429H341.564V372H349.439Z" fill="#779760"/>
</svg>
